PathFileType	4	(X/Y/Z)	/Users/itak/Documents/Research/Walk-IL/dataset/trc/00019_00004.trc
DataRate	CameraRate	NumFrames	NumMarkers	Units	OrigDataRate	OrigDataStartFrame	OrigNumFrames
100.000000	100.000000	4	53	mm	100.000000	681	909
Frame#	Time	RPSI			LPSI			L3			STRN			T10			C7			CLAV			RBAK			LBAK			LSHO			LUPA			LAEL			LAOL			LWTS			LWPS			LFRA			LIFD			LHPS			LHTS			RSHO			RUPA			RAEL			RAOL			RWTS			RWPS			RFRA			RIFD			RHTS			RHPS			RBHD			LFHD			RFHD			LBHD			LHIP			RHIP			RASI			LASI			LKNE			LTHI			LANK			LTIP			LTOE			LMT1			LMT5			LHEE			RKNE			RTHI			RANK			RTIP			RTOE			RMT1			RMT5			RHEE			
		X1	Y1	Z1	X2	Y2	Z2	X3	Y3	Z3	X4	Y4	Z4	X5	Y5	Z5	X6	Y6	Z6	X7	Y7	Z7	X8	Y8	Z8	X9	Y9	Z9	X10	Y10	Z10	X11	Y11	Z11	X12	Y12	Z12	X13	Y13	Z13	X14	Y14	Z14	X15	Y15	Z15	X16	Y16	Z16	X17	Y17	Z17	X18	Y18	Z18	X19	Y19	Z19	X20	Y20	Z20	X21	Y21	Z21	X22	Y22	Z22	X23	Y23	Z23	X24	Y24	Z24	X25	Y25	Z25	X26	Y26	Z26	X27	Y27	Z27	X28	Y28	Z28	X29	Y29	Z29	X30	Y30	Z30	X31	Y31	Z31	X32	Y32	Z32	X33	Y33	Z33	X34	Y34	Z34	X35	Y35	Z35	X36	Y36	Z36	X37	Y37	Z37	X38	Y38	Z38	X39	Y39	Z39	X40	Y40	Z40	X41	Y41	Z41	X42	Y42	Z42	X43	Y43	Z43	X44	Y44	Z44	X45	Y45	Z45	X46	Y46	Z46	X47	Y47	Z47	X48	Y48	Z48	X49	Y49	Z49	X50	Y50	Z50	X51	Y51	Z51	X52	Y52	Z52	X53	Y53	Z53	

682	6.81	-606.8045654296875	1061.783325195312	-32.18704605102539	-446.37939453125	1037.773803710938	-39.73559951782227	-512.9009399414062	1117.1220703125	-44.17460632324219	-482.5124816894531	1303.820678710938	178.561767578125	-498.6929931640625	1260.677490234375	-70.95489501953125	-447.5267944335938	1523.5625	-20.79576301574707	-460.3204956054688	1426.810913085938	134.0247344970703	-549.4660034179688	1402.112915039062	-74.81254577636719	-360.2192687988281	1466.8203125	-44.08443832397461	-280.5512390136719	1458.828369140625	52.49276733398438	-226.1699829101562	1328.300415039062	2.835394382476807	-234.7671661376953	1114.774780273438	-33.10184478759766	-334.190673828125	1120.63037109375	-69.54302978515625	-293.3278198242188	865.56640625	53.37529373168945	-286.4886779785156	850.312744140625	-33.76411819458008	-242.4796752929688	998.14697265625	-31.30820083618164	-324.9232482910156	683.1631469726562	86.65127563476562	-290.4378967285156	759.4559326171875	-3.873876333236694	-286.9557800292969	770.1190795898438	66.53075408935547	-617.41845703125	1533.083374023438	64.00405883789062	-700.83544921875	1478.242553710938	47.45684814453125	-796.4337768554688	1235.506958007812	-8.46571159362793	-709.2838134765625	1186.751220703125	-29.28719329833984	-804.3374633789062	960.550537109375	78.52923583984375	-882.7981567382812	967.1556396484375	30.26996421813965	-827.1760864257812	1163.8037109375	-0.9826833605766296	-810.1840209960938	773.8240966796875	66.00885009765625	-825.8795166015625	849.2837524414062	96.66698455810547	-887.8220825195312	858.24853515625	53.44934844970703	-358.2359313964844	1689.0703125	51.905029296875	-374.8757934570312	1654.149780273438	267.9163208007812	-295.9759521484375	1635.106323242188	213.6745758056641	-476.2219543457031	1712.053344726562	133.6807250976562	-344.5026245117188	930.6468505859375	59.69047927856445	-712.8560180664062	964.0219116210938	90.76429748535156	-635.6261596679688	995.623046875	187.9773712158203	-400.1953430175781	987.3663330078125	172.3455047607422	-476.2908935546875	506.6888122558594	180.832275390625	-416.3056030273438	629.2793579101562	131.3199310302734	-566.1729736328125	38.07434463500977	40.87895584106445	-504.6327514648438	267.7733764648438	88.87603759765625	-655.4976806640625	38.09614181518555	253.0863494873047	-661.1334228515625	47.7591667175293	192.9798278808594	-556.4365844726562	39.85113525390625	167.2269592285156	-612.7216796875	50.51141357421875	-31.21638298034668	-734.3251342773438	533.6309814453125	197.4145355224609	-733.27197265625	806.28271484375	143.5547332763672	-812.2513427734375	141.0788726806641	-110.7017593383789	-762.04931640625	425.1392211914062	135.3846435546875	-831.971435546875	62.1505241394043	105.7802200317383	-785.392578125	74.12680816650391	53.95230102539062	-873.0863647460938	97.82577514648438	18.01859855651855	-756.2642211914062	145.2376098632812	-153.9487152099609	
683	6.82	-608.7015380859375	1061.908447265625	-20.87932205200195	-448.5030212402344	1037.976318359375	-32.97152328491211	-515.1690673828125	1116.953491210938	-35.39444351196289	-479.5556030273438	1304.143188476562	185.9010620117188	-501.3369445800781	1260.505126953125	-63.22320938110352	-449.3992614746094	1523.602783203125	-14.5750560760498	-458.6210632324219	1427.065185546875	140.6317291259766	-552.2785034179688	1401.7978515625	-66.18147277832031	-362.5214538574219	1466.964233398438	-39.66013336181641	-280.7665100097656	1459.247314453125	55.2046012878418	-227.2439270019531	1328.719604492188	4.339753150939941	-236.2813110351562	1115.126220703125	-31.33939170837402	-336.5460205078125	1121.004272460938	-65.62288665771484	-292.8631286621094	865.7439575195312	56.18610763549805	-287.7090454101562	850.5967407226562	-31.07908630371094	-243.8882598876953	998.4996948242188	-29.45986557006836	-323.5657348632812	683.24755859375	89.84970855712891	-290.9214477539062	759.6885986328125	-1.349114418029785	-286.1086730957031	770.2626342773438	69.07875061035156	-617.51025390625	1532.848999023438	73.75657653808594	-701.0809936523438	1477.80859375	59.01294708251953	-797.1600952148438	1234.822875976562	5.083724498748779	-710.3504638671875	1186.363891601562	-17.2419319152832	-803.2592163085938	959.9048461914062	91.78395843505859	-882.5525512695312	966.4021606445312	44.98546600341797	-827.7059936523438	1163.1357421875	13.04155158996582	-809.3038330078125	772.8355102539062	78.87596893310547	-824.0950927734375	848.3621826171875	109.3139877319336	-887.1972045898438	857.4542236328125	67.93723297119141	-358.2330017089844	1689.388061523438	56.93112564086914	-372.240234375	1654.56201171875	273.2586364746094	-294.2438049316406	1635.4208984375	217.9581909179688	-475.28369140625	1712.38330078125	139.9683227539062	-344.2117919921875	930.6204833984375	63.29956436157227	-711.0487670898438	964.3630981445312	105.0481567382812	-631.3525390625	995.7821044921875	199.9787139892578	-396.48681640625	987.2144775390625	177.7654113769531	-474.6915283203125	505.7144165039062	182.6489562988281	-414.6437377929688	628.970458984375	133.9105834960938	-566.2157592773438	38.11341857910156	40.89934921264648	-503.998779296875	267.504638671875	89.68128204345703	-655.477294921875	38.09513854980469	253.1878967285156	-660.9519653320312	47.88405990600586	193.06787109375	-556.2556762695312	39.74957656860352	167.2122955322266	-612.8184814453125	50.79811477661133	-31.19292831420898	-728.7809448242188	534.5948486328125	214.8767700195312	-730.1203002929688	806.8001708984375	159.1940612792969	-818.78955078125	132.8206481933594	-77.55140686035156	-758.721923828125	424.7431640625	156.8175354003906	-827.5679321289062	62.021484375	142.5211791992188	-783.6578979492188	72.13671112060547	88.12181091308594	-873.0353393554688	94.13969421386719	55.57025909423828	-764.9488525390625	135.513427734375	-123.5586471557617	
684	6.83	-610.4989624023438	1061.977416992188	-9.555365562438965	-450.6609802246094	1038.124633789062	-26.29427528381348	-517.416259765625	1116.717651367188	-26.64280891418457	-476.5266723632812	1304.341918945312	193.1038208007812	-504.0492553710938	1260.258544921875	-55.49482345581055	-451.2952270507812	1523.553588867188	-8.354957580566406	-456.8677062988281	1427.215698242188	147.1699523925781	-555.1028442382812	1401.415161132812	-57.47836685180664	-364.9099731445312	1467.002075195312	-35.28911209106445	-281.04638671875	1459.546752929688	57.76272583007812	-228.4487457275391	1329.012573242188	5.677481174468994	-237.9127655029297	1115.354125976562	-29.74320411682129	-339.0602722167969	1121.199462890625	-61.7362060546875	-292.3821105957031	865.8073120117188	58.86138916015625	-289.027587890625	850.7501831054688	-28.49922370910645	-245.4107666015625	998.712646484375	-27.77827835083008	-322.0859069824219	683.2286376953125	92.99948120117188	-291.4483337402344	759.7964477539062	1.06496787071228	-285.2149047851562	770.28955078125	71.49461364746094	-617.4957885742188	1532.539428710938	83.5799560546875	-701.2073364257812	1477.303955078125	70.69191741943359	-797.7505493164062	1234.08056640625	18.78934669494629	-711.3604736328125	1185.896240234375	-5.11361026763916	-802.034912109375	959.1705322265625	105.0691070556641	-882.16455078125	965.5901489257812	59.83269500732422	-828.081298828125	1162.411376953125	27.22597312927246	-808.3168334960938	771.755615234375	91.79164886474609	-822.2218017578125	847.3900756835938	122.1693267822266	-886.4072875976562	856.5888061523438	82.54115295410156	-358.222900390625	1689.605224609375	61.91029357910156	-369.6836547851562	1654.864013671875	278.4894409179688	-292.4703063964844	1635.639404296875	222.1868591308594	-474.30419921875	1712.612060546875	146.2000427246094	-343.9579467773438	930.5473022460938	66.70171356201172	-709.2574462890625	964.7115478515625	119.5096282958984	-626.8677368164062	995.8233032226562	211.797119140625	-392.7187805175781	986.9642944335938	182.9348602294922	-473.0094909667969	504.7317504882812	184.4034729003906	-412.6014099121094	628.6901245117188	136.4874572753906	-566.2720947265625	38.15922927856445	40.92366790771484	-503.4115295410156	267.2483215332031	90.47679901123047	-655.4298706054688	38.11675262451172	253.2886962890625	-660.7449951171875	48.02657318115234	193.1616668701172	-556.0787353515625	39.66483306884766	167.2128448486328	-612.9505004882812	51.06502151489258	-31.17416954040527	-722.8264770507812	535.5094604492188	232.2098083496094	-726.7748413085938	807.2667846679688	174.8205261230469	-823.9803466796875	125.1726837158203	-44.03940963745117	-754.7045288085938	424.3749389648438	178.2596282958984	-821.2245483398438	61.98525238037109	178.6273040771484	-780.193359375	70.39653778076172	121.8586196899414	-871.1992797851562	90.72813415527344	92.96549987792969	-772.4501342773438	126.5530624389648	-92.69297790527344	
685	6.84	-612.18798828125	1061.98681640625	1.772063970565796	-452.8500366210938	1038.2109375	-19.68989372253418	-519.6375122070312	1116.423583984375	-17.92978096008301	-473.4228515625	1304.422973632812	200.1722564697266	-506.8223876953125	1259.954467773438	-47.75908279418945	-453.2098693847656	1523.427612304688	-2.114725351333618	-455.064208984375	1427.266845703125	153.6475067138672	-557.9382934570312	1400.980590820312	-48.69656372070312	-367.3796691894531	1466.952026367188	-30.95097160339355	-281.3862609863281	1459.7373046875	60.17953872680664	-229.7823333740234	1329.194580078125	6.873776912689209	-239.6826324462891	1115.471435546875	-28.28729057312012	-341.73779296875	1121.219848632812	-57.84828186035156	-291.8854675292969	865.7632446289062	61.41203689575195	-290.4508056640625	850.78857421875	-26.00543403625488	-247.0539245605469	998.80126953125	-26.24088287353516	-320.4850158691406	683.115966796875	96.09345245361328	-292.0215148925781	759.7904052734375	3.390814065933228	-284.277099609375	770.2142333984375	73.78302764892578	-617.3677978515625	1532.16064453125	93.4869384765625	-701.2048950195312	1476.736206054688	82.50160980224609	-798.1992797851562	1233.291870117188	32.64544677734375	-712.30517578125	1185.351928710938	7.08424711227417	-800.6494750976562	958.3173828125	118.37841796875	-881.63037109375	964.730224609375	74.80349731445312	-828.2848510742188	1161.63818359375	41.56841659545898	-807.2084350585938	770.6246337890625	104.7616195678711	-820.3151245117188	846.4619140625	135.3755340576172	-885.4395141601562	855.6617431640625	97.26810455322266	-358.2090148925781	1689.726440429688	66.85248565673828	-367.2131958007812	1655.062744140625	283.6156005859375	-290.6377563476562	1635.771850585938	226.3762359619141	-473.2867126464844	1712.741821289062	152.3964233398438	-343.7166137695312	930.4379272460938	69.93661499023438	-707.3453369140625	964.9926147460938	133.9667205810547	-622.1759033203125	995.7681884765625	223.4086151123047	-388.9024047851562	986.63037109375	187.8641204833984	-471.2590942382812	503.7393798828125	186.1259613037109	-410.3792419433594	628.40771484375	139.0164031982422	-566.3447265625	38.21506881713867	40.9544563293457	-502.8865966796875	267.0056457519531	91.26915740966797	-655.3519287109375	38.16015243530273	253.3863677978516	-660.5198364257812	48.17675018310547	193.2580413818359	-555.916259765625	39.59251022338867	167.232421875	-613.1026611328125	51.33574295043945	-31.15298080444336	-716.475830078125	536.3980712890625	249.3797760009766	-723.2047119140625	807.6682739257812	190.3807983398438	-827.7205810546875	118.1359252929688	-10.30457878112793	-749.9995727539062	424.0629577636719	199.6387023925781	-813.1332397460938	62.08715438842773	213.981201171875	-775.141357421875	68.895751953125	155.0407257080078	-867.6394653320312	87.65583038330078	130.0415496826172	-778.6362915039062	118.33544921875	-61.46216583251953	
